<mxfile host="app.diagrams.net" agent="Mozilla/5.0 (Windows NT 10.0; Win64; x64) AppleWebKit/537.36 (KHTML, like Gecko) Chrome/141.0.0.0 Safari/537.36" version="28.2.7">
  <diagram name="Page-1" id="2XnCyZm6wWjODpccvkQH">
    <mxGraphModel dx="1042" dy="1627" grid="1" gridSize="10" guides="1" tooltips="1" connect="1" arrows="1" fold="1" page="1" pageScale="1" pageWidth="850" pageHeight="1100" math="0" shadow="0">
      <root>
        <mxCell id="0" />
        <mxCell id="1" parent="0" />
        <mxCell id="8iMK52UJdz8f9kvyhQGl-15" value="crm_cust_info" style="swimlane;fontStyle=0;childLayout=stackLayout;horizontal=1;startSize=30;horizontalStack=0;resizeParent=1;resizeParentMax=0;resizeLast=0;collapsible=1;marginBottom=0;whiteSpace=wrap;html=1;rounded=1;fillColor=#1ba1e2;fontColor=#ffffff;strokeColor=#006EAF;" parent="1" vertex="1">
          <mxGeometry x="285" y="80" width="140" height="90" as="geometry" />
        </mxCell>
        <mxCell id="8iMK52UJdz8f9kvyhQGl-16" value="cst_id" style="text;strokeColor=none;fillColor=none;align=left;verticalAlign=middle;spacingLeft=4;spacingRight=4;overflow=hidden;points=[[0,0.5],[1,0.5]];portConstraint=eastwest;rotatable=0;whiteSpace=wrap;html=1;" parent="8iMK52UJdz8f9kvyhQGl-15" vertex="1">
          <mxGeometry y="30" width="140" height="30" as="geometry" />
        </mxCell>
        <mxCell id="8iMK52UJdz8f9kvyhQGl-34" value="cst_key" style="text;strokeColor=none;fillColor=none;align=left;verticalAlign=middle;spacingLeft=4;spacingRight=4;overflow=hidden;points=[[0,0.5],[1,0.5]];portConstraint=eastwest;rotatable=0;whiteSpace=wrap;html=1;" parent="8iMK52UJdz8f9kvyhQGl-15" vertex="1">
          <mxGeometry y="60" width="140" height="30" as="geometry" />
        </mxCell>
        <mxCell id="8iMK52UJdz8f9kvyhQGl-19" value="Customer Information" style="text;html=1;whiteSpace=wrap;strokeColor=none;fillColor=none;align=center;verticalAlign=middle;rounded=0;" parent="1" vertex="1">
          <mxGeometry x="295" y="40" width="120" height="40" as="geometry" />
        </mxCell>
        <mxCell id="8iMK52UJdz8f9kvyhQGl-21" value="crm_prd&lt;span style=&quot;background-color: transparent; color: light-dark(rgb(255, 255, 255), rgb(18, 18, 18));&quot;&gt;_info&lt;/span&gt;" style="swimlane;fontStyle=0;childLayout=stackLayout;horizontal=1;startSize=30;horizontalStack=0;resizeParent=1;resizeParentMax=0;resizeLast=0;collapsible=1;marginBottom=0;whiteSpace=wrap;html=1;rounded=1;fillColor=#1ba1e2;fontColor=#ffffff;strokeColor=#006EAF;" parent="1" vertex="1">
          <mxGeometry x="285" y="325" width="140" height="60" as="geometry" />
        </mxCell>
        <mxCell id="8iMK52UJdz8f9kvyhQGl-22" value="prd_key" style="text;strokeColor=none;fillColor=none;align=left;verticalAlign=middle;spacingLeft=4;spacingRight=4;overflow=hidden;points=[[0,0.5],[1,0.5]];portConstraint=eastwest;rotatable=0;whiteSpace=wrap;html=1;" parent="8iMK52UJdz8f9kvyhQGl-21" vertex="1">
          <mxGeometry y="30" width="140" height="30" as="geometry" />
        </mxCell>
        <mxCell id="8iMK52UJdz8f9kvyhQGl-23" value="Current &amp;amp; History Product Information" style="text;html=1;whiteSpace=wrap;strokeColor=none;fillColor=none;align=center;verticalAlign=middle;rounded=0;" parent="1" vertex="1">
          <mxGeometry x="270" y="295" width="180" height="30" as="geometry" />
        </mxCell>
        <mxCell id="8iMK52UJdz8f9kvyhQGl-25" value="crm_sales_details" style="swimlane;fontStyle=0;childLayout=stackLayout;horizontal=1;startSize=30;horizontalStack=0;resizeParent=1;resizeParentMax=0;resizeLast=0;collapsible=1;marginBottom=0;whiteSpace=wrap;html=1;rounded=1;fillColor=#1ba1e2;fontColor=#ffffff;strokeColor=#006EAF;" parent="1" vertex="1">
          <mxGeometry x="50" y="205" width="140" height="90" as="geometry" />
        </mxCell>
        <mxCell id="8iMK52UJdz8f9kvyhQGl-26" value="prd_key" style="text;strokeColor=none;fillColor=none;align=left;verticalAlign=middle;spacingLeft=4;spacingRight=4;overflow=hidden;points=[[0,0.5],[1,0.5]];portConstraint=eastwest;rotatable=0;whiteSpace=wrap;html=1;" parent="8iMK52UJdz8f9kvyhQGl-25" vertex="1">
          <mxGeometry y="30" width="140" height="30" as="geometry" />
        </mxCell>
        <mxCell id="8iMK52UJdz8f9kvyhQGl-28" value="cst_id" style="text;strokeColor=none;fillColor=none;align=left;verticalAlign=middle;spacingLeft=4;spacingRight=4;overflow=hidden;points=[[0,0.5],[1,0.5]];portConstraint=eastwest;rotatable=0;whiteSpace=wrap;html=1;" parent="8iMK52UJdz8f9kvyhQGl-25" vertex="1">
          <mxGeometry y="60" width="140" height="30" as="geometry" />
        </mxCell>
        <mxCell id="8iMK52UJdz8f9kvyhQGl-27" value="Transaction Records about Sales &amp;amp; Orders" style="text;html=1;whiteSpace=wrap;strokeColor=none;fillColor=none;align=center;verticalAlign=middle;rounded=0;" parent="1" vertex="1">
          <mxGeometry x="60" y="165" width="120" height="40" as="geometry" />
        </mxCell>
        <mxCell id="8iMK52UJdz8f9kvyhQGl-29" style="edgeStyle=orthogonalEdgeStyle;rounded=0;orthogonalLoop=1;jettySize=auto;html=1;exitX=1;exitY=0.5;exitDx=0;exitDy=0;" parent="1" source="8iMK52UJdz8f9kvyhQGl-26" target="8iMK52UJdz8f9kvyhQGl-16" edge="1">
          <mxGeometry relative="1" as="geometry" />
        </mxCell>
        <mxCell id="8iMK52UJdz8f9kvyhQGl-30" style="edgeStyle=orthogonalEdgeStyle;rounded=0;orthogonalLoop=1;jettySize=auto;html=1;entryX=0;entryY=0.5;entryDx=0;entryDy=0;" parent="1" source="8iMK52UJdz8f9kvyhQGl-26" target="8iMK52UJdz8f9kvyhQGl-22" edge="1">
          <mxGeometry relative="1" as="geometry" />
        </mxCell>
        <mxCell id="8iMK52UJdz8f9kvyhQGl-31" value="erp_cust_az12" style="swimlane;fontStyle=0;childLayout=stackLayout;horizontal=1;startSize=30;horizontalStack=0;resizeParent=1;resizeParentMax=0;resizeLast=0;collapsible=1;marginBottom=0;whiteSpace=wrap;html=1;rounded=1;fillColor=#d80073;fontColor=#ffffff;strokeColor=#A50040;" parent="1" vertex="1">
          <mxGeometry x="550" y="90" width="140" height="60" as="geometry" />
        </mxCell>
        <mxCell id="8iMK52UJdz8f9kvyhQGl-32" value="cid" style="text;strokeColor=none;fillColor=none;align=left;verticalAlign=middle;spacingLeft=4;spacingRight=4;overflow=hidden;points=[[0,0.5],[1,0.5]];portConstraint=eastwest;rotatable=0;whiteSpace=wrap;html=1;" parent="8iMK52UJdz8f9kvyhQGl-31" vertex="1">
          <mxGeometry y="30" width="140" height="30" as="geometry" />
        </mxCell>
        <mxCell id="8iMK52UJdz8f9kvyhQGl-33" value="Extra customer Information (BDATE)" style="text;html=1;whiteSpace=wrap;strokeColor=none;fillColor=none;align=center;verticalAlign=middle;rounded=0;" parent="1" vertex="1">
          <mxGeometry x="560" y="50" width="120" height="40" as="geometry" />
        </mxCell>
        <mxCell id="8iMK52UJdz8f9kvyhQGl-36" style="edgeStyle=orthogonalEdgeStyle;rounded=0;orthogonalLoop=1;jettySize=auto;html=1;" parent="1" source="8iMK52UJdz8f9kvyhQGl-32" target="8iMK52UJdz8f9kvyhQGl-34" edge="1">
          <mxGeometry relative="1" as="geometry" />
        </mxCell>
        <mxCell id="8iMK52UJdz8f9kvyhQGl-37" value="erp_loc_a101" style="swimlane;fontStyle=0;childLayout=stackLayout;horizontal=1;startSize=30;horizontalStack=0;resizeParent=1;resizeParentMax=0;resizeLast=0;collapsible=1;marginBottom=0;whiteSpace=wrap;html=1;rounded=1;fillColor=#d80073;fontColor=#ffffff;strokeColor=#A50040;" parent="1" vertex="1">
          <mxGeometry x="540" y="220" width="200" height="60" as="geometry" />
        </mxCell>
        <mxCell id="8iMK52UJdz8f9kvyhQGl-38" value="cid" style="text;strokeColor=none;fillColor=none;align=left;verticalAlign=middle;spacingLeft=4;spacingRight=4;overflow=hidden;points=[[0,0.5],[1,0.5]];portConstraint=eastwest;rotatable=0;whiteSpace=wrap;html=1;" parent="8iMK52UJdz8f9kvyhQGl-37" vertex="1">
          <mxGeometry y="30" width="200" height="30" as="geometry" />
        </mxCell>
        <mxCell id="8iMK52UJdz8f9kvyhQGl-39" value="Location of customers (Country)" style="text;html=1;whiteSpace=wrap;strokeColor=none;fillColor=none;align=center;verticalAlign=middle;rounded=0;" parent="1" vertex="1">
          <mxGeometry x="550" y="180" width="120" height="40" as="geometry" />
        </mxCell>
        <mxCell id="8iMK52UJdz8f9kvyhQGl-40" style="edgeStyle=orthogonalEdgeStyle;rounded=0;orthogonalLoop=1;jettySize=auto;html=1;entryX=1;entryY=0.5;entryDx=0;entryDy=0;" parent="1" source="8iMK52UJdz8f9kvyhQGl-38" target="8iMK52UJdz8f9kvyhQGl-34" edge="1">
          <mxGeometry relative="1" as="geometry" />
        </mxCell>
        <mxCell id="8iMK52UJdz8f9kvyhQGl-41" value="erp_px_cat_g1v2" style="swimlane;fontStyle=0;childLayout=stackLayout;horizontal=1;startSize=30;horizontalStack=0;resizeParent=1;resizeParentMax=0;resizeLast=0;collapsible=1;marginBottom=0;whiteSpace=wrap;html=1;rounded=1;fillColor=#d80073;fontColor=#ffffff;strokeColor=#A50040;" parent="1" vertex="1">
          <mxGeometry x="530" y="345" width="200" height="60" as="geometry" />
        </mxCell>
        <mxCell id="8iMK52UJdz8f9kvyhQGl-42" value="id" style="text;strokeColor=none;fillColor=none;align=left;verticalAlign=middle;spacingLeft=4;spacingRight=4;overflow=hidden;points=[[0,0.5],[1,0.5]];portConstraint=eastwest;rotatable=0;whiteSpace=wrap;html=1;" parent="8iMK52UJdz8f9kvyhQGl-41" vertex="1">
          <mxGeometry y="30" width="200" height="30" as="geometry" />
        </mxCell>
        <mxCell id="8iMK52UJdz8f9kvyhQGl-43" value="Product Categories" style="text;html=1;whiteSpace=wrap;strokeColor=none;fillColor=none;align=center;verticalAlign=middle;rounded=0;" parent="1" vertex="1">
          <mxGeometry x="560" y="305" width="120" height="40" as="geometry" />
        </mxCell>
        <mxCell id="8iMK52UJdz8f9kvyhQGl-44" style="edgeStyle=orthogonalEdgeStyle;rounded=0;orthogonalLoop=1;jettySize=auto;html=1;entryX=1;entryY=0.5;entryDx=0;entryDy=0;" parent="1" source="8iMK52UJdz8f9kvyhQGl-42" target="8iMK52UJdz8f9kvyhQGl-22" edge="1">
          <mxGeometry relative="1" as="geometry" />
        </mxCell>
        <mxCell id="8iMK52UJdz8f9kvyhQGl-45" value="" style="rounded=1;whiteSpace=wrap;html=1;fillColor=none;dashed=1;" parent="1" vertex="1">
          <mxGeometry x="30" y="40" width="440" height="430" as="geometry" />
        </mxCell>
        <mxCell id="8iMK52UJdz8f9kvyhQGl-48" value="CRM" style="rounded=1;whiteSpace=wrap;html=1;fontSize=19;fontStyle=1;fillColor=default;" parent="1" vertex="1">
          <mxGeometry x="210" y="-20" width="120" height="60" as="geometry" />
        </mxCell>
        <mxCell id="8iMK52UJdz8f9kvyhQGl-49" value="ERP" style="rounded=1;whiteSpace=wrap;html=1;fontSize=19;fontStyle=1;fillColor=default;" parent="1" vertex="1">
          <mxGeometry x="580" y="-40" width="120" height="60" as="geometry" />
        </mxCell>
        <mxCell id="8iMK52UJdz8f9kvyhQGl-46" value="" style="rounded=1;whiteSpace=wrap;html=1;fillColor=none;dashed=1;" parent="1" vertex="1">
          <mxGeometry x="510" y="20" width="280" height="450" as="geometry" />
        </mxCell>
        <mxCell id="hPFLbD3PtlBV11PO81GU-3" value="PRODUCT" style="rounded=1;align=center;fillColor=#e3c800;strokeColor=#B09500;html=1;whiteSpace=wrap;fontColor=#000000;fontSize=12" vertex="1" parent="1">
          <mxGeometry x="290" y="385" width="130" height="33" as="geometry" />
        </mxCell>
        <mxCell id="hPFLbD3PtlBV11PO81GU-4" value="PRODUCT" style="rounded=1;align=center;fillColor=#e3c800;strokeColor=#B09500;html=1;whiteSpace=wrap;fontColor=#000000;fontSize=12" vertex="1" parent="1">
          <mxGeometry x="540" y="405" width="180" height="33" as="geometry" />
        </mxCell>
        <mxCell id="hPFLbD3PtlBV11PO81GU-5" value="CUSTOMER" style="rounded=1;align=center;fillColor=#e51400;strokeColor=#B20000;html=1;whiteSpace=wrap;fontColor=#ffffff;fontSize=12" vertex="1" parent="1">
          <mxGeometry x="300" y="172" width="110" height="33" as="geometry" />
        </mxCell>
        <mxCell id="hPFLbD3PtlBV11PO81GU-7" value="CUSTOMER" style="rounded=1;align=center;fillColor=#e51400;strokeColor=#B20000;html=1;whiteSpace=wrap;fontColor=#ffffff;fontSize=12" vertex="1" parent="1">
          <mxGeometry x="560" y="150" width="115" height="33" as="geometry" />
        </mxCell>
        <mxCell id="hPFLbD3PtlBV11PO81GU-8" value="CUSTOMER" style="rounded=1;align=center;fillColor=#e51400;strokeColor=#B20000;html=1;whiteSpace=wrap;fontColor=#ffffff;fontSize=12" vertex="1" parent="1">
          <mxGeometry x="550" y="280" width="180" height="33" as="geometry" />
        </mxCell>
        <mxCell id="hPFLbD3PtlBV11PO81GU-9" value="SALES" style="rounded=1;align=center;fillColor=#6d8764;strokeColor=#3A5431;html=1;whiteSpace=wrap;fontColor=#ffffff;fontSize=12" vertex="1" parent="1">
          <mxGeometry x="50" y="295" width="130" height="33" as="geometry" />
        </mxCell>
      </root>
    </mxGraphModel>
  </diagram>
</mxfile>
